<svg version="1.1" viewBox="0.0 0.0 1111.4041994750655 264.5538057742782" fill="none" stroke="none" stroke-linecap="square" stroke-miterlimit="10" xmlns:xlink="http://www.w3.org/1999/xlink" xmlns="http://www.w3.org/2000/svg"><clipPath id="p.0"><path d="m0 0l1111.4042 0l0 264.5538l-1111.4042 0l0 -264.5538z" clip-rule="nonzero"/></clipPath><g clip-path="url(#p.0)"><path fill="#000000" fill-opacity="0.0" d="m0 0l1111.4042 0l0 264.5538l-1111.4042 0z" fill-rule="evenodd"/><path fill="#c5cfd7" fill-opacity="0.5294" d="m935.49603 178.8939l0 0c0 -1.9287567 1.5635986 -3.4923248 3.4923706 -3.4923248l131.37756 0c0.92614746 0 1.8144531 0.36793518 2.4693604 1.0228729c0.6550293 0.65493774 1.0229492 1.5432281 1.0229492 2.469452l0 43.975967c0 1.9287567 -1.5635986 3.4923248 -3.4923096 3.4923248l-131.37756 0c-1.928772 0 -3.4923706 -1.5635681 -3.4923706 -3.4923248z" fill-rule="evenodd"/><path stroke="#000000" stroke-width="1.0" stroke-linejoin="round" stroke-linecap="butt" d="m935.49603 178.8939l0 0c0 -1.9287567 1.5635986 -3.4923248 3.4923706 -3.4923248l131.37756 0c0.92614746 0 1.8144531 0.36793518 2.4693604 1.0228729c0.6550293 0.65493774 1.0229492 1.5432281 1.0229492 2.469452l0 43.975967c0 1.9287567 -1.5635986 3.4923248 -3.4923096 3.4923248l-131.37756 0c-1.928772 0 -3.4923706 -1.5635681 -3.4923706 -3.4923248z" fill-rule="evenodd"/><path fill="#000000" d="m972.55664 195.55563q2.15625 0 3.359375 1.390625q1.21875 1.390625 1.21875 3.9375q0 1.65625 -0.546875 2.859375q-0.546875 1.1875 -1.578125 1.828125q-1.03125 0.640625 -2.453125 0.640625q-1.421875 0 -2.453125 -0.625q-1.03125 -0.640625 -1.578125 -1.828125q-0.546875 -1.203125 -0.546875 -2.875q0 -1.65625 0.546875 -2.84375q0.546875 -1.203125 1.578125 -1.84375q1.03125 -0.640625 2.453125 -0.640625zm0 1.765625q-1.046875 0 -1.5625 0.84375q-0.5 0.828125 -0.5 2.71875q0 1.875 0.515625 2.71875q0.515625 0.84375 1.546875 0.84375q1.046875 0 1.546875 -0.828125q0.515625 -0.84375 0.515625 -2.734375q0 -1.890625 -0.515625 -2.71875q-0.515625 -0.84375 -1.546875 -0.84375zm10.377502 0.609375q1.40625 0 2.140625 1.09375q0.75 1.09375 0.75 3.046875q0 1.203125 -0.375 2.140625q-0.375 0.9375 -1.078125 1.46875q-0.6875 0.53125 -1.640625 0.53125q-0.625 0 -1.15625 -0.265625q-0.515625 -0.265625 -0.875 -0.734375l-0.125 0.75l-2.046875 0l0 -10.875l2.3125 -0.25l0 4.140625q0.359375 -0.484375 0.90625 -0.765625q0.546875 -0.28125 1.1875 -0.28125zm-0.875 6.59375q1.359375 0 1.359375 -2.453125q0 -1.390625 -0.328125 -1.90625q-0.3125 -0.53125 -0.921875 -0.53125q-0.78125 0 -1.328125 0.90625l0 3.234375q0.21875 0.359375 0.53125 0.5625q0.328125 0.1875 0.6875 0.1875zm7.515442 0.5625q0 1.21875 -0.390625 2.0q-0.375 0.796875 -1.046875 1.265625q-0.671875 0.484375 -1.671875 0.84375l-0.78125 -1.6875q0.5625 -0.25 0.890625 -0.5q0.328125 -0.25 0.5 -0.671875q0.1875 -0.421875 0.1875 -1.109375l0 -7.046875l2.3125 0l0 6.90625zm-1.140625 -11.015625q0.59375 0 0.984375 0.375q0.390625 0.375 0.390625 0.953125q0 0.5625 -0.390625 0.9375q-0.390625 0.375 -0.984375 0.375q-0.609375 0 -1.0 -0.375q-0.375 -0.375 -0.375 -0.9375q0 -0.578125 0.375 -0.953125q0.390625 -0.375 1.0 -0.375zm9.743408 7.84375q0 0.484375 -0.03125 0.84375l-4.828125 0q0.125 0.96875 0.5625 1.375q0.4375 0.390625 1.21875 0.390625q0.46875 0 0.90625 -0.15625q0.4375 -0.171875 0.953125 -0.53125l0.953125 1.296875q-1.375 1.078125 -3.046875 1.078125q-1.890625 0 -2.90625 -1.109375q-1.0 -1.125 -1.0 -3.0q0 -1.1875 0.421875 -2.125q0.421875 -0.953125 1.234375 -1.5q0.828125 -0.546875 1.984375 -0.546875q1.6875 0 2.625 1.0625q0.953125 1.046875 0.953125 2.921875zm-2.265625 -0.65625q-0.03125 -1.796875 -1.265625 -1.796875q-0.59375 0 -0.921875 0.453125q-0.328125 0.4375 -0.40625 1.4375l2.59375 0l0 -0.09375zm6.949707 -3.328125q0.796875 0 1.4375 0.234375q0.65625 0.234375 1.234375 0.71875l-1.0 1.375q-0.734375 -0.5625 -1.484375 -0.5625q-0.78125 0 -1.171875 0.578125q-0.390625 0.578125 -0.390625 1.84375q0 1.234375 0.390625 1.75q0.390625 0.515625 1.140625 0.515625q0.40625 0 0.71875 -0.125q0.328125 -0.125 0.78125 -0.40625l1.015625 1.4375q-1.15625 0.921875 -2.625 0.921875q-1.1875 0 -2.0625 -0.5q-0.859375 -0.515625 -1.328125 -1.421875q-0.46875 -0.921875 -0.46875 -2.15625q0 -1.234375 0.46875 -2.1875q0.46875 -0.953125 1.328125 -1.484375q0.875 -0.53125 2.015625 -0.53125zm8.53595 7.671875q-0.4375 0.28125 -1.0 0.4375q-0.5625 0.171875 -1.125 0.171875q-2.546875 -0.015625 -2.546875 -2.8125l0 -3.609375l-1.09375 0l0 -1.609375l1.09375 0l0 -1.6875l2.3125 -0.265625l0 1.953125l1.796875 0l-0.25 1.609375l-1.546875 0l0 3.578125q0 0.546875 0.171875 0.78125q0.1875 0.234375 0.5625 0.234375q0.40625 0 0.84375 -0.25l0.78125 1.46875zm5.3292236 -7.671875q1.015625 0 1.578125 0.625q0.578125 0.609375 0.578125 1.71875l0 5.6875l-2.3125 0l0 -5.296875q0 -0.578125 -0.1875 -0.796875q-0.1875 -0.234375 -0.546875 -0.234375q-0.703125 0 -1.359375 1.015625l0 5.3125l-2.3125 0l0 -7.78125l2.03125 0l0.15625 0.921875q0.5 -0.59375 1.078125 -0.875q0.578125 -0.296875 1.296875 -0.296875zm10.675476 3.984375q0 0.484375 -0.03125 0.84375l-4.828125 0q0.125 0.96875 0.5625 1.375q0.4375 0.390625 1.21875 0.390625q0.46875 0 0.90625 -0.15625q0.4375 -0.171875 0.953125 -0.53125l0.953125 1.296875q-1.375 1.078125 -3.046875 1.078125q-1.890625 0 -2.90625 -1.109375q-1.0 -1.125 -1.0 -3.0q0 -1.1875 0.421875 -2.125q0.421875 -0.953125 1.234375 -1.5q0.828125 -0.546875 1.984375 -0.546875q1.6875 0 2.625 1.0625q0.953125 1.046875 0.953125 2.921875zm-2.265625 -0.65625q-0.03125 -1.796875 -1.265625 -1.796875q-0.59375 0 -0.921875 0.453125q-0.328125 0.4375 -0.40625 1.4375l2.59375 0l0 -0.09375zm6.324585 -3.328125q0.828125 0 1.5625 0.25q0.734375 0.25 1.28125 0.703125l-0.84375 1.296875q-0.953125 -0.59375 -1.921875 -0.59375q-0.453125 0 -0.703125 0.15625q-0.234375 0.15625 -0.234375 0.421875q0 0.234375 0.109375 0.375q0.109375 0.125 0.4375 0.28125q0.34375 0.140625 1.046875 0.34375q1.21875 0.359375 1.8125 0.921875q0.59375 0.5625 0.59375 1.5625q0 0.78125 -0.453125 1.375q-0.453125 0.578125 -1.25 0.890625q-0.78125 0.296875 -1.75 0.296875q-0.984375 0 -1.828125 -0.296875q-0.84375 -0.3125 -1.421875 -0.859375l1.125 -1.265625q0.984375 0.765625 2.0625 0.765625q0.53125 0 0.828125 -0.1875q0.296875 -0.1875 0.296875 -0.546875q0 -0.28125 -0.125 -0.4375q-0.109375 -0.15625 -0.453125 -0.296875q-0.328125 -0.140625 -1.0625 -0.34375q-1.15625 -0.34375 -1.734375 -0.9375q-0.5625 -0.609375 -0.5625 -1.5q0 -0.671875 0.390625 -1.203125q0.390625 -0.546875 1.109375 -0.859375q0.734375 -0.3125 1.6875 -0.3125zm6.9764404 0q0.828125 0 1.5625 0.25q0.734375 0.25 1.28125 0.703125l-0.84375 1.296875q-0.953125 -0.59375 -1.921875 -0.59375q-0.453125 0 -0.703125 0.15625q-0.234375 0.15625 -0.234375 0.421875q0 0.234375 0.109375 0.375q0.109375 0.125 0.4375 0.28125q0.34375 0.140625 1.046875 0.34375q1.21875 0.359375 1.8125 0.921875q0.59375 0.5625 0.59375 1.5625q0 0.78125 -0.453125 1.375q-0.453125 0.578125 -1.25 0.890625q-0.78125 0.296875 -1.75 0.296875q-0.984375 0 -1.828125 -0.296875q-0.84375 -0.3125 -1.421875 -0.859375l1.125 -1.265625q0.984375 0.765625 2.0625 0.765625q0.53125 0 0.828125 -0.1875q0.296875 -0.1875 0.296875 -0.546875q0 -0.28125 -0.125 -0.4375q-0.109375 -0.15625 -0.453125 -0.296875q-0.328125 -0.140625 -1.0625 -0.34375q-1.15625 -0.34375 -1.734375 -0.9375q-0.5625 -0.609375 -0.5625 -1.5q0 -0.671875 0.390625 -1.203125q0.390625 -0.546875 1.109375 -0.859375q0.734375 -0.3125 1.6875 -0.3125z" fill-rule="nonzero"/><defs><linearGradient id="p.1" gradientUnits="userSpaceOnUse" gradientTransform="matrix(-8.023619219987207 0.0 0.0 -8.023619219987207 0.0 0.0)" spreadMethod="pad" x1="-134.15510124626948" y1="-29.209102641839564" x2="-134.1551216911573" y2="-21.18548342187841"><stop offset="0.0" stop-color="#ffffff"/><stop offset="1.0" stop-color="#ffffff" stop-opacity="0.0"/></linearGradient></defs><path fill="url(#p.1)" d="m1076.4094 234.3622l-143.46454 0l0 -64.377945l143.46454 0z" fill-rule="evenodd"/><defs><linearGradient id="p.2" gradientUnits="userSpaceOnUse" gradientTransform="matrix(-8.023619219987207 0.0 0.0 -8.023619219987207 0.0 0.0)" spreadMethod="pad" x1="-134.15510124626948" y1="-29.209102641839564" x2="-134.1551216911573" y2="-21.18548342187841"><stop offset="0.0" stop-color="#ffffff"/><stop offset="1.0" stop-color="#ffffff" stop-opacity="0.0"/></linearGradient></defs><path fill="url(#p.2)" d="m1076.4094 234.3622l-143.46454 0l0 -64.377945l143.46454 0z" fill-rule="evenodd"/><path fill="#fff2cc" d="m41.587925 71.09963l0 0c0 -4.8385925 3.9224548 -8.761051 8.761051 -8.761051l406.09995 0c2.323578 0 4.552002 0.9230385 6.1950073 2.5660515c1.6430054 1.643013 2.56604 3.8714218 2.56604 6.1949997l0 110.32043c0 4.8385925 -3.9224548 8.761047 -8.761047 8.761047l-406.09995 0c-4.8385963 0 -8.761051 -3.9224548 -8.761051 -8.761047z" fill-rule="evenodd"/><path stroke="#000000" stroke-width="1.0" stroke-linejoin="round" stroke-linecap="butt" d="m41.587925 71.09963l0 0c0 -4.8385925 3.9224548 -8.761051 8.761051 -8.761051l406.09995 0c2.323578 0 4.552002 0.9230385 6.1950073 2.5660515c1.6430054 1.643013 2.56604 3.8714218 2.56604 6.1949997l0 110.32043c0 4.8385925 -3.9224548 8.761047 -8.761047 8.761047l-406.09995 0c-4.8385963 0 -8.761051 -3.9224548 -8.761051 -8.761047z" fill-rule="evenodd"/><path fill="#000000" d="m138.98705 126.3361q1.296875 0.234375 2.09375 0.953125q0.8125 0.703125 0.8125 2.1249924q0 2.0625 -1.484375 2.921875q-1.46875 0.84375 -4.140625 0.84375l-4.15625 0l0 -12.921867l3.65625 0q2.71875 0 4.15625 0.78125q1.4375 0.765625 1.4375 2.515625q0 1.140625 -0.6875 1.84375q-0.671875 0.6875 -1.6875 0.9375zm-3.828125 -3.921875l0 3.0l1.140625 0q1.9375 0 1.9375 -1.5625q0 -0.78125 -0.515625 -1.109375q-0.515625 -0.328125 -1.65625 -0.328125l-0.90625 0zm1.125 8.546867q1.21875 0 1.84375 -0.359375q0.625 -0.375 0.625 -1.359375q0 -1.7968674 -2.25 -1.7968674l-1.34375 0l0 3.5156174l1.125 0zm15.151535 -0.65625q0 0.5625 0.15625 0.828125q0.15625 0.25 0.515625 0.390625l-0.625 1.921875q-0.90625 -0.078125 -1.484375 -0.40625q-0.578125 -0.328125 -0.890625 -1.03125q-0.96875 1.484375 -2.984375 1.484375q-1.484375 0 -2.359375 -0.859375q-0.875 -0.859375 -0.875 -2.234375q0 -1.625 1.1875 -2.4843674q1.203125 -0.859375 3.453125 -0.859375l1.015625 0l0 -0.421875q0 -0.875 -0.375 -1.203125q-0.375 -0.328125 -1.3125 -0.328125q-0.484375 0 -1.171875 0.140625q-0.6875 0.140625 -1.421875 0.375l-0.671875 -1.9375q0.9375 -0.34375 1.90625 -0.53125q0.984375 -0.1875 1.828125 -0.1875q2.125 0 3.109375 0.875q1.0 0.875 1.0 2.625l0 3.8437424zm-4.453125 1.078125q1.0 0 1.5625 -0.953125l0 -1.75l-0.734375 0q-1.0 0 -1.5 0.359375q-0.484375 0.359375 -0.484375 1.09375q0 0.609375 0.296875 0.9375q0.3125 0.3125 0.859375 0.3125zm11.098633 -8.421867q1.015625 0 1.828125 0.296875q0.828125 0.296875 1.5625 0.90625l-1.265625 1.765625q-0.9375 -0.71875 -1.890625 -0.71875q-0.984375 0 -1.5 0.734375q-0.5 0.71875 -0.5 2.3437424q0 1.5625 0.5 2.21875q0.515625 0.65625 1.46875 0.65625q0.5 0 0.90625 -0.15625q0.421875 -0.15625 1.0 -0.515625l1.28125 1.828125q-1.46875 1.171875 -3.34375 1.171875q-1.5 0 -2.609375 -0.640625q-1.09375 -0.640625 -1.703125 -1.796875q-0.59375 -1.171875 -0.59375 -2.75q0 -1.5624924 0.59375 -2.7656174q0.609375 -1.21875 1.703125 -1.890625q1.109375 -0.6875 2.5625 -0.6875zm7.5925903 -3.9375l0 14.156242l-2.953125 0l0 -13.843742l2.953125 -0.3125zm6.109375 4.25l-3.0 4.34375l3.25 5.5624924l-3.328125 0l-2.9375 -5.4062424l3.015625 -4.5l3.0 0zm6.8451233 -0.3125q1.78125 0 2.734375 1.390625q0.953125 1.390625 0.953125 3.8906174q0 1.515625 -0.484375 2.71875q-0.46875 1.1875 -1.359375 1.859375q-0.890625 0.671875 -2.09375 0.671875q-0.8125 0 -1.46875 -0.328125q-0.65625 -0.34375 -1.125 -0.9375l-0.15625 0.953125l-2.609375 0l0 -13.843742l2.953125 -0.3125l0 5.25q0.4375 -0.609375 1.140625 -0.953125q0.703125 -0.359375 1.515625 -0.359375zm-1.109375 8.390617q1.734375 0 1.734375 -3.109375q0 -1.7812424 -0.421875 -2.4531174q-0.40625 -0.671875 -1.1875 -0.671875q-0.984375 0 -1.671875 1.15625l0 4.1249924q0.28125 0.453125 0.671875 0.703125q0.40625 0.25 0.875 0.25zm10.934662 -8.390617q2.265625 0 3.546875 1.390625q1.296875 1.390625 1.296875 3.8906174q0 1.578125 -0.59375 2.765625q-0.578125 1.1875 -1.671875 1.84375q-1.09375 0.640625 -2.578125 0.640625q-2.265625 0 -3.5625 -1.390625q-1.296875 -1.390625 -1.296875 -3.890625q0 -1.5781174 0.578125 -2.7656174q0.59375 -1.1875 1.6875 -1.828125q1.09375 -0.65625 2.59375 -0.65625zm0 2.15625q-0.90625 0 -1.359375 0.765625q-0.4375 0.75 -0.4375 2.3281174q0 1.625 0.4375 2.375q0.4375 0.75 1.359375 0.75q0.890625 0 1.328125 -0.75q0.453125 -0.765625 0.453125 -2.34375q0 -1.6249924 -0.4375 -2.3749924q-0.4375 -0.75 -1.34375 -0.75zm12.395248 -2.15625q1.296875 0 2.015625 0.78125q0.734375 0.78125 0.734375 2.203125l0 7.2343674l-2.953125 0l0 -6.7343674q0 -0.75 -0.234375 -1.03125q-0.234375 -0.296875 -0.6875 -0.296875q-0.90625 0 -1.71875 1.296875l0 6.7656174l-2.953125 0l0 -9.906242l2.578125 0l0.203125 1.171875q0.640625 -0.75 1.375 -1.109375q0.734375 -0.375 1.640625 -0.375zm13.608414 5.0624924q0 0.625 -0.0625 1.078125l-6.140625 0q0.15625 1.25 0.71875 1.75q0.5625 0.5 1.546875 0.5q0.59375 0 1.15625 -0.203125q0.5625 -0.21875 1.21875 -0.671875l1.203125 1.640625q-1.734375 1.375 -3.859375 1.375q-2.40625 0 -3.703125 -1.40625q-1.28125 -1.421875 -1.28125 -3.8125q0 -1.5156174 0.53125 -2.7187424q0.546875 -1.203125 1.59375 -1.890625q1.046875 -0.703125 2.5 -0.703125q2.15625 0 3.359375 1.34375q1.21875 1.34375 1.21875 3.7187424zm-2.890625 -0.8281174q-0.046875 -2.28125 -1.609375 -2.28125q-0.765625 0 -1.1875 0.5625q-0.421875 0.5625 -0.515625 1.84375l3.3125 0l0 -0.125z" fill-rule="nonzero"/><path fill="#000000" d="m225.19916 118.16422q-0.96875 1.4375 -1.546875 2.5625q-0.5625 1.125 -0.890625 2.5625q-0.328125 1.4375 -0.328125 3.359375q0 1.9062424 0.328125 3.3437424q0.328125 1.4375 0.890625 2.59375q0.578125 1.140625 1.546875 2.546875l-1.078125 0.75q-1.234375 -1.75 -1.90625 -2.875q-0.65625 -1.140625 -1.109375 -2.703125q-0.453125 -1.578125 -0.453125 -3.6562424q0 -2.0625 0.453125 -3.640625q0.453125 -1.578125 1.109375 -2.703125q0.671875 -1.140625 1.90625 -2.890625l1.078125 0.75zm2.607132 15.015617l0 -12.859367l6.828125 0l-0.203125 1.421875l-4.84375 0l0 4.390625l4.1875 0l0 1.390625l-4.1875 0l0 5.6562424l-1.78125 0zm15.850632 -5.2031174q0 0.42186737 -0.046875 0.8749924l-6.265625 0q0.109375 1.625 0.8125 2.390625q0.71875 0.765625 1.84375 0.765625q0.703125 0 1.296875 -0.203125q0.59375 -0.203125 1.25 -0.65625l0.75 1.03125q-1.5625 1.21875 -3.4375 1.21875q-2.046875 0 -3.203125 -1.34375q-1.140625 -1.34375 -1.140625 -3.6875q0 -1.5312424 0.484375 -2.7187424q0.5 -1.1875 1.421875 -1.859375q0.9375 -0.671875 2.1875 -0.671875q1.953125 0 3.0 1.296875q1.046875 1.28125 1.046875 3.5625zm-1.703125 -0.5q0 -1.453125 -0.578125 -2.21875q-0.578125 -0.765625 -1.734375 -0.765625q-2.109375 0 -2.296875 3.09375l4.609375 0l0 -0.109375zm10.871628 3.4062424q0 0.59375 0.203125 0.890625q0.21875 0.28125 0.625 0.4375l-0.390625 1.1875q-0.765625 -0.09375 -1.234375 -0.421875q-0.46875 -0.34375 -0.6875 -1.046875q-1.0 1.46875 -2.9375 1.46875q-1.453125 0 -2.296875 -0.8125q-0.828125 -0.828125 -0.828125 -2.15625q0 -1.5625 1.125 -2.390625q1.125 -0.8437424 3.203125 -0.8437424l1.5 0l0 -0.734375q0 -1.046875 -0.5 -1.484375q-0.5 -0.453125 -1.546875 -0.453125q-1.078125 0 -2.640625 0.515625l-0.4375 -1.25q1.828125 -0.671875 3.390625 -0.671875q1.734375 0 2.59375 0.859375q0.859375 0.84375 0.859375 2.40625l0 4.4999924zm-4.03125 1.234375q1.484375 0 2.3125 -1.53125l0 -2.25l-1.28125 0q-2.71875 0 -2.71875 2.015625q0 0.875 0.421875 1.328125q0.4375 0.4375 1.265625 0.4375zm12.524002 0.609375q-0.96875 0.671875 -2.203125 0.671875q-1.25 0 -1.953125 -0.71875q-0.6875 -0.71875 -0.6875 -2.078125l0 -5.9218674l-1.71875 0l0 -1.328125l1.71875 0l0 -2.21875l1.703125 -0.203125l0 2.421875l2.34375 0l-0.1875 1.328125l-2.15625 0l0 5.8437424q0 0.765625 0.265625 1.125q0.28125 0.34375 0.921875 0.34375q0.578125 0 1.296875 -0.390625l0.65625 1.125zm9.078674 0.453125l-1.46875 0l-0.125 -1.53125q-0.5625 0.921875 -1.296875 1.34375q-0.71875 0.40625 -1.765625 0.40625q-1.28125 0 -2.015625 -0.78125q-0.734375 -0.78125 -0.734375 -2.21875l0 -7.0468674l1.71875 0l0 6.8593674q0 1.015625 0.359375 1.4375q0.359375 0.40625 1.15625 0.40625q1.4375 0 2.46875 -1.6875l0 -7.0156174l1.703125 0l0 9.828117zm7.8266907 -10.062492q0.515625 0 0.96875 0.125l-0.3125 1.671875q-0.453125 -0.109375 -0.859375 -0.109375q-0.921875 0 -1.484375 0.671875q-0.546875 0.671875 -0.875 2.09375l0 5.6093674l-1.71875 0l0 -9.828117l1.484375 0l0.171875 2.0q0.390625 -1.109375 1.0625 -1.671875q0.671875 -0.5625 1.5625 -0.5625zm9.797546 4.859375q0 0.42186737 -0.046875 0.8749924l-6.265625 0q0.109375 1.625 0.8125 2.390625q0.71875 0.765625 1.84375 0.765625q0.703125 0 1.296875 -0.203125q0.59375 -0.203125 1.25 -0.65625l0.75 1.03125q-1.5625 1.21875 -3.4375 1.21875q-2.046875 0 -3.203125 -1.34375q-1.140625 -1.34375 -1.140625 -3.6875q0 -1.5312424 0.484375 -2.7187424q0.5 -1.1875 1.421875 -1.859375q0.9375 -0.671875 2.1875 -0.671875q1.953125 0 3.0 1.296875q1.046875 1.28125 1.046875 3.5625zm-1.703125 -0.5q0 -1.453125 -0.578125 -2.21875q-0.578125 -0.765625 -1.734375 -0.765625q-2.109375 0 -2.296875 3.09375l4.609375 0l0 -0.109375zm16.439697 -7.15625l-0.203125 1.421875l-4.984375 0l0 4.203125l4.328125 0l0 1.40625l-4.328125 0l0 4.4062424l5.328125 0l0 1.421875l-7.109375 0l0 -12.859367l6.96875 0zm6.6998596 7.59375l3.40625 5.2656174l-2.0625 0l-2.40625 -4.15625l-2.453125 4.15625l-1.9375 0l3.4375 -5.1874924l-3.046875 -4.640625l2.015625 0l2.046875 3.59375l2.078125 -3.59375l1.9375 0l-3.015625 4.5625zm10.235779 4.8124924q-0.96875 0.671875 -2.203125 0.671875q-1.25 0 -1.953125 -0.71875q-0.6875 -0.71875 -0.6875 -2.078125l0 -5.9218674l-1.71875 0l0 -1.328125l1.71875 0l0 -2.21875l1.703125 -0.203125l0 2.421875l2.34375 0l-0.1875 1.328125l-2.15625 0l0 5.8437424q0 0.765625 0.265625 1.125q0.28125 0.34375 0.921875 0.34375q0.578125 0 1.296875 -0.390625l0.65625 1.125zm6.047394 -9.609367q0.515625 0 0.96875 0.125l-0.3125 1.671875q-0.453125 -0.109375 -0.859375 -0.109375q-0.921875 0 -1.484375 0.671875q-0.546875 0.671875 -0.875 2.09375l0 5.6093674l-1.71875 0l0 -9.828117l1.484375 0l0.171875 2.0q0.390625 -1.109375 1.0625 -1.671875q0.671875 -0.5625 1.5625 -0.5625zm8.891724 7.7656174q0 0.59375 0.203125 0.890625q0.21875 0.28125 0.625 0.4375l-0.390625 1.1875q-0.765625 -0.09375 -1.234375 -0.421875q-0.46875 -0.34375 -0.6875 -1.046875q-1.0 1.46875 -2.9375 1.46875q-1.453125 0 -2.296875 -0.8125q-0.828125 -0.828125 -0.828125 -2.15625q0 -1.5625 1.125 -2.390625q1.125 -0.8437424 3.203125 -0.8437424l1.5 0l0 -0.734375q0 -1.046875 -0.5 -1.484375q-0.5 -0.453125 -1.546875 -0.453125q-1.078125 0 -2.640625 0.515625l-0.4375 -1.25q1.828125 -0.671875 3.390625 -0.671875q1.734375 0 2.59375 0.859375q0.859375 0.84375 0.859375 2.40625l0 4.4999924zm-4.03125 1.234375q1.484375 0 2.3125 -1.53125l0 -2.25l-1.28125 0q-2.71875 0 -2.71875 2.015625q0 0.875 0.421875 1.328125q0.4375 0.4375 1.265625 0.4375zm11.149017 -8.999992q0.875 0 1.59375 0.265625q0.734375 0.25 1.40625 0.796875l-0.828125 1.09375q-0.515625 -0.375 -1.015625 -0.546875q-0.484375 -0.1875 -1.09375 -0.1875q-1.1875 0 -1.859375 0.953125q-0.65625 0.953125 -0.65625 2.8124924q0 1.875 0.65625 2.765625q0.65625 0.875 1.859375 0.875q0.578125 0 1.0625 -0.171875q0.5 -0.171875 1.09375 -0.578125l0.78125 1.125q-1.34375 1.078125 -3.0 1.078125q-2.0 0 -3.15625 -1.34375q-1.140625 -1.34375 -1.140625 -3.703125q0 -1.5781174 0.515625 -2.7499924q0.53125 -1.171875 1.484375 -1.828125q0.96875 -0.65625 2.296875 -0.65625zm10.292694 9.609367q-0.96875 0.671875 -2.203125 0.671875q-1.25 0 -1.953125 -0.71875q-0.6875 -0.71875 -0.6875 -2.078125l0 -5.9218674l-1.71875 0l0 -1.328125l1.71875 0l0 -2.21875l1.703125 -0.203125l0 2.421875l2.34375 0l-0.1875 1.328125l-2.15625 0l0 5.8437424q0 0.765625 0.265625 1.125q0.28125 0.34375 0.921875 0.34375q0.578125 0 1.296875 -0.390625l0.65625 1.125zm5.18927 -9.609367q2.0625 0 3.203125 1.390625q1.15625 1.375 1.15625 3.7499924q0 1.53125 -0.53125 2.703125q-0.515625 1.15625 -1.5 1.796875q-0.984375 0.640625 -2.34375 0.640625q-2.078125 0 -3.234375 -1.375q-1.15625 -1.375 -1.15625 -3.75q0 -1.5312424 0.515625 -2.6874924q0.53125 -1.171875 1.515625 -1.8125q0.984375 -0.65625 2.375 -0.65625zm0 1.390625q-2.5625 0 -2.5625 3.7656174q0 3.75 2.546875 3.75q2.53125 0 2.53125 -3.765625q0 -3.7499924 -2.515625 -3.7499924zm11.473389 -1.390625q0.515625 0 0.96875 0.125l-0.3125 1.671875q-0.453125 -0.109375 -0.859375 -0.109375q-0.921875 0 -1.484375 0.671875q-0.546875 0.671875 -0.875 2.09375l0 5.6093674l-1.71875 0l0 -9.828117l1.484375 0l0.171875 2.0q0.390625 -1.109375 1.0625 -1.671875q0.671875 -0.5625 1.5625 -0.5625zm2.982544 -5.703125q1.234375 1.75 1.890625 2.890625q0.671875 1.125 1.125 2.703125q0.453125 1.578125 0.453125 3.640625q0 2.0781174 -0.453125 3.6562424q-0.453125 1.5625 -1.125 2.703125q-0.65625 1.125 -1.890625 2.875l-1.078125 -0.75q0.96875 -1.40625 1.53125 -2.546875q0.578125 -1.15625 0.890625 -2.59375q0.328125 -1.4375 0.328125 -3.3437424q0 -1.921875 -0.328125 -3.359375q-0.3125 -1.4375 -0.890625 -2.5625q-0.5625 -1.125 -1.53125 -2.5625l1.078125 -0.75z" fill-rule="nonzero"/><path fill="#ead1dc" d="m490.81104 71.09963l0 0c0 -4.8385925 3.9224548 -8.761051 8.761047 -8.761051l120.84009 0c2.3236084 0 4.552002 0.9230385 6.1950073 2.5660515c1.6430054 1.643013 2.56604 3.8714218 2.56604 6.1949997l0 110.32043c0 4.8385925 -3.9224243 8.761047 -8.761047 8.761047l-120.84009 0l0 0c-4.8385925 0 -8.761047 -3.9224548 -8.761047 -8.761047z" fill-rule="evenodd"/><path stroke="#000000" stroke-width="1.0" stroke-linejoin="round" stroke-linecap="butt" d="m490.81104 71.09963l0 0c0 -4.8385925 3.9224548 -8.761051 8.761047 -8.761051l120.84009 0c2.3236084 0 4.552002 0.9230385 6.1950073 2.5660515c1.6430054 1.643013 2.56604 3.8714218 2.56604 6.1949997l0 110.32043c0 4.8385925 -3.9224243 8.761047 -8.761047 8.761047l-120.84009 0l0 0c-4.8385925 0 -8.761047 -3.9224548 -8.761047 -8.761047z" fill-rule="evenodd"/><path fill="#000000" d="m550.213 133.17984l-3.890625 0l-3.734375 -10.015617q0.1875 1.46875 0.28125 2.609375q0.109375 1.125 0.109375 2.6718674l0 4.734375l-2.71875 0l0 -12.921867l3.796875 0l3.828125 10.031242q-0.40625 -2.5624924 -0.40625 -4.8124924l0 -5.21875l2.734375 0l0 12.921867zm10.994141 -5.15625q0 0.625 -0.0625 1.078125l-6.140625 0q0.15625 1.25 0.71875 1.75q0.5625 0.5 1.546875 0.5q0.59375 0 1.15625 -0.203125q0.5625 -0.21875 1.21875 -0.671875l1.203125 1.640625q-1.734375 1.375 -3.859375 1.375q-2.40625 0 -3.703125 -1.40625q-1.28125 -1.421875 -1.28125 -3.8125q0 -1.5156174 0.53125 -2.7187424q0.546875 -1.203125 1.59375 -1.890625q1.046875 -0.703125 2.5 -0.703125q2.15625 0 3.359375 1.34375q1.21875 1.34375 1.21875 3.7187424zm-2.890625 -0.8281174q-0.046875 -2.28125 -1.609375 -2.28125q-0.765625 0 -1.1875 0.5625q-0.421875 0.5625 -0.515625 1.84375l3.3125 0l0 -0.125zm8.845093 -4.234375q1.015625 0 1.828125 0.296875q0.828125 0.296875 1.5625 0.90625l-1.265625 1.765625q-0.9375 -0.71875 -1.890625 -0.71875q-0.984375 0 -1.5 0.734375q-0.5 0.71875 -0.5 2.3437424q0 1.5625 0.5 2.21875q0.515625 0.65625 1.46875 0.65625q0.5 0 0.90625 -0.15625q0.421875 -0.15625 1.0 -0.515625l1.28125 1.828125q-1.46875 1.171875 -3.34375 1.171875q-1.5 0 -2.609375 -0.640625q-1.09375 -0.640625 -1.703125 -1.796875q-0.59375 -1.171875 -0.59375 -2.75q0 -1.5624924 0.59375 -2.7656174q0.609375 -1.21875 1.703125 -1.890625q1.109375 -0.6875 2.5625 -0.6875zm7.5925903 -3.9375l0 14.156242l-2.953125 0l0 -13.843742l2.953125 -0.3125zm6.109375 4.25l-3.0 4.34375l3.25 5.5624924l-3.328125 0l-2.9375 -5.4062424l3.015625 -4.5l3.0 0z" fill-rule="nonzero"/><path fill="#d9d2e9" d="m651.68506 71.09963l0 0c0 -4.8385925 3.9224243 -8.761051 8.761047 -8.761051l213.34406 0c2.3235474 0 4.551941 0.9230385 6.1949463 2.5660515c1.6430664 1.643013 2.566101 3.8714218 2.566101 6.1949997l0 110.32043c0 4.8385925 -3.9224854 8.761047 -8.761047 8.761047l-213.34406 0c-4.838623 0 -8.761047 -3.9224548 -8.761047 -8.761047z" fill-rule="evenodd"/><path stroke="#000000" stroke-width="1.0" stroke-linejoin="round" stroke-linecap="butt" d="m651.68506 71.09963l0 0c0 -4.8385925 3.9224243 -8.761051 8.761047 -8.761051l213.34406 0c2.3235474 0 4.551941 0.9230385 6.1949463 2.5660515c1.6430664 1.643013 2.566101 3.8714218 2.566101 6.1949997l0 110.32043c0 4.8385925 -3.9224854 8.761047 -8.761047 8.761047l-213.34406 0c-4.838623 0 -8.761047 -3.9224548 -8.761047 -8.761047z" fill-rule="evenodd"/><path fill="#000000" d="m710.8503 120.25797q3.046875 0 4.875 1.375q1.84375 1.359375 1.84375 5.015625q0 3.6093674 -1.796875 5.0781174q-1.78125 1.453125 -4.640625 1.453125l-3.875 0l0 -12.921867l3.59375 0zm-0.546875 2.21875l0 8.484367l1.015625 0q1.515625 0 2.296875 -0.9375q0.78125 -0.953125 0.78125 -3.3749924q0 -1.65625 -0.390625 -2.5625q-0.390625 -0.921875 -1.0625 -1.265625q-0.671875 -0.34375 -1.65625 -0.34375l-0.984375 0zm17.676453 5.5468674q0 0.625 -0.0625 1.078125l-6.140625 0q0.15625 1.25 0.71875 1.75q0.5625 0.5 1.546875 0.5q0.59375 0 1.15625 -0.203125q0.5625 -0.21875 1.21875 -0.671875l1.203125 1.640625q-1.734375 1.375 -3.859375 1.375q-2.40625 0 -3.703125 -1.40625q-1.28125 -1.421875 -1.28125 -3.8125q0 -1.5156174 0.53125 -2.7187424q0.546875 -1.203125 1.59375 -1.890625q1.046875 -0.703125 2.5 -0.703125q2.15625 0 3.359375 1.34375q1.21875 1.34375 1.21875 3.7187424zm-2.890625 -0.8281174q-0.046875 -2.28125 -1.609375 -2.28125q-0.765625 0 -1.1875 0.5625q-0.421875 0.5625 -0.515625 1.84375l3.3125 0l0 -0.125zm10.767029 5.5156174q-0.546875 0.375 -1.265625 0.578125q-0.71875 0.203125 -1.421875 0.203125q-3.25 -0.015625 -3.25 -3.578125l0 -4.5937424l-1.40625 0l0 -2.046875l1.40625 0l0 -2.140625l2.953125 -0.34375l0 2.484375l2.265625 0l-0.3125 2.046875l-1.953125 0l0 4.5624924q0 0.6875 0.21875 0.984375q0.21875 0.296875 0.703125 0.296875q0.515625 0 1.0625 -0.3125l1.0 1.859375zm9.28717 -4.6875q0 0.625 -0.0625 1.078125l-6.140625 0q0.15625 1.25 0.71875 1.75q0.5625 0.5 1.546875 0.5q0.59375 0 1.15625 -0.203125q0.5625 -0.21875 1.21875 -0.671875l1.203125 1.640625q-1.734375 1.375 -3.859375 1.375q-2.40625 0 -3.703125 -1.40625q-1.28125 -1.421875 -1.28125 -3.8125q0 -1.5156174 0.53125 -2.7187424q0.546875 -1.203125 1.59375 -1.890625q1.046875 -0.703125 2.5 -0.703125q2.15625 0 3.359375 1.34375q1.21875 1.34375 1.21875 3.7187424zm-2.890625 -0.8281174q-0.046875 -2.28125 -1.609375 -2.28125q-0.765625 0 -1.1875 0.5625q-0.421875 0.5625 -0.515625 1.84375l3.3125 0l0 -0.125zm8.845154 -4.234375q1.015625 0 1.828125 0.296875q0.828125 0.296875 1.5625 0.90625l-1.265625 1.765625q-0.9375 -0.71875 -1.890625 -0.71875q-0.984375 0 -1.5 0.734375q-0.5 0.71875 -0.5 2.3437424q0 1.5625 0.5 2.21875q0.515625 0.65625 1.46875 0.65625q0.5 0 0.90625 -0.15625q0.421875 -0.15625 1.0 -0.515625l1.28125 1.828125q-1.46875 1.171875 -3.34375 1.171875q-1.5 0 -2.609375 -0.640625q-1.09375 -0.640625 -1.703125 -1.796875q-0.59375 -1.171875 -0.59375 -2.75q0 -1.5624924 0.59375 -2.7656174q0.609375 -1.21875 1.703125 -1.890625q1.109375 -0.6875 2.5625 -0.6875zm10.858215 9.749992q-0.546875 0.375 -1.265625 0.578125q-0.71875 0.203125 -1.421875 0.203125q-3.25 -0.015625 -3.25 -3.578125l0 -4.5937424l-1.40625 0l0 -2.046875l1.40625 0l0 -2.140625l2.953125 -0.34375l0 2.484375l2.265625 0l-0.3125 2.046875l-1.953125 0l0 4.5624924q0 0.6875 0.21875 0.984375q0.21875 0.296875 0.703125 0.296875q0.515625 0 1.0625 -0.3125l1.0 1.859375zm4.9434204 -9.749992q2.265625 0 3.546875 1.390625q1.296875 1.390625 1.296875 3.8906174q0 1.578125 -0.59375 2.765625q-0.578125 1.1875 -1.671875 1.84375q-1.09375 0.640625 -2.578125 0.640625q-2.265625 0 -3.5625 -1.390625q-1.296875 -1.390625 -1.296875 -3.890625q0 -1.5781174 0.578125 -2.7656174q0.59375 -1.1875 1.6875 -1.828125q1.09375 -0.65625 2.59375 -0.65625zm0 2.15625q-0.90625 0 -1.359375 0.765625q-0.4375 0.75 -0.4375 2.3281174q0 1.625 0.4375 2.375q0.4375 0.75 1.359375 0.75q0.890625 0 1.328125 -0.75q0.453125 -0.765625 0.453125 -2.34375q0 -1.6249924 -0.4375 -2.3749924q-0.4375 -0.75 -1.34375 -0.75zm11.973389 -2.125q0.546875 0 0.984375 0.125l-0.46875 2.859375q-0.546875 -0.125 -0.890625 -0.125q-0.875 0 -1.34375 0.609375q-0.453125 0.59375 -0.703125 1.8124924l0 4.90625l-2.953125 0l0 -9.906242l2.578125 0l0.234375 1.921875q0.34375 -1.03125 1.015625 -1.609375q0.6875 -0.59375 1.546875 -0.59375zm13.527649 10.187492l0 -5.5468674l-3.890625 0l0 5.5468674l-3.046875 0l0 -12.921867l3.046875 0l0 5.0l3.890625 0l0 -5.0l3.0625 0l0 12.921867l-3.0625 0zm14.065674 -5.15625q0 0.625 -0.0625 1.078125l-6.140625 0q0.15625 1.25 0.71875 1.75q0.5625 0.5 1.546875 0.5q0.59375 0 1.15625 -0.203125q0.5625 -0.21875 1.21875 -0.671875l1.203125 1.640625q-1.734375 1.375 -3.859375 1.375q-2.40625 0 -3.703125 -1.40625q-1.28125 -1.421875 -1.28125 -3.8125q0 -1.5156174 0.53125 -2.7187424q0.546875 -1.203125 1.59375 -1.890625q1.046875 -0.703125 2.5 -0.703125q2.15625 0 3.359375 1.34375q1.21875 1.34375 1.21875 3.7187424zm-2.890625 -0.8281174q-0.046875 -2.28125 -1.609375 -2.28125q-0.765625 0 -1.1875 0.5625q-0.421875 0.5625 -0.515625 1.84375l3.3125 0l0 -0.125zm12.236633 3.1093674q0 0.5625 0.15625 0.828125q0.15625 0.25 0.515625 0.390625l-0.625 1.921875q-0.90625 -0.078125 -1.484375 -0.40625q-0.578125 -0.328125 -0.890625 -1.03125q-0.96875 1.484375 -2.984375 1.484375q-1.484375 0 -2.359375 -0.859375q-0.875 -0.859375 -0.875 -2.234375q0 -1.625 1.1875 -2.4843674q1.203125 -0.859375 3.453125 -0.859375l1.015625 0l0 -0.421875q0 -0.875 -0.375 -1.203125q-0.375 -0.328125 -1.3125 -0.328125q-0.484375 0 -1.171875 0.140625q-0.6875 0.140625 -1.421875 0.375l-0.671875 -1.9375q0.9375 -0.34375 1.90625 -0.53125q0.984375 -0.1875 1.828125 -0.1875q2.125 0 3.109375 0.875q1.0 0.875 1.0 2.625l0 3.8437424zm-4.453125 1.078125q1.0 0 1.5625 -0.953125l0 -1.75l-0.734375 0q-1.0 0 -1.5 0.359375q-0.484375 0.359375 -0.484375 1.09375q0 0.609375 0.296875 0.9375q0.3125 0.3125 0.859375 0.3125zm15.676758 -12.046867l0 13.843742l-2.609375 0l-0.140625 -1.15625q-1.046875 1.46875 -2.828125 1.46875q-1.84375 0 -2.8125 -1.40625q-0.953125 -1.421875 -0.953125 -3.890625q0 -1.5156174 0.5 -2.7031174q0.515625 -1.1875 1.4375 -1.859375q0.921875 -0.671875 2.109375 -0.671875q1.421875 0 2.359375 0.921875l0 -4.859375l2.9375 0.3125zm-4.65625 11.999992q1.03125 0 1.71875 -1.125l0 -4.2656174q-0.359375 -0.4375 -0.734375 -0.640625q-0.359375 -0.203125 -0.8125 -0.203125q-0.828125 0 -1.3125 0.765625q-0.484375 0.765625 -0.484375 2.3437424q0 1.734375 0.421875 2.4375q0.421875 0.6875 1.203125 0.6875z" fill-rule="nonzero"/><path fill="#000000" fill-opacity="0.0" d="m465.20996 126.25984l25.606323 0" fill-rule="evenodd"/><path stroke="#000000" stroke-width="1.0" stroke-linejoin="round" stroke-linecap="butt" d="m465.20996 126.25984l19.606323 0" fill-rule="evenodd"/><path fill="#000000" stroke="#000000" stroke-width="1.0" stroke-linecap="butt" d="m484.81628 127.911575l4.538086 -1.6517334l-4.538086 -1.6517334z" fill-rule="evenodd"/><path fill="#000000" fill-opacity="0.0" d="m629.1732 126.25984l22.519714 0" fill-rule="evenodd"/><path stroke="#000000" stroke-width="1.0" stroke-linejoin="round" stroke-linecap="butt" d="m629.1732 126.25984l16.519714 0" fill-rule="evenodd"/><path fill="#000000" stroke="#000000" stroke-width="1.0" stroke-linecap="butt" d="m645.69293 127.911575l4.538086 -1.6517334l-4.538086 -1.6517334z" fill-rule="evenodd"/><path fill="#cfe2f3" d="m935.73755 41.830914l0 0c0 -1.9287605 1.5635376 -3.4923325 3.4923096 -3.4923325l131.37756 0c0.92614746 0 1.8144531 0.3679428 2.4694824 1.0228806c0.6549072 0.65494156 1.0228271 1.5432281 1.0228271 2.469452l0 43.975964c0 1.9287643 -1.5635986 3.4923325 -3.4923096 3.4923325l-131.37756 0c-1.928772 0 -3.4923096 -1.5635681 -3.4923096 -3.4923325z" fill-rule="evenodd"/><path stroke="#000000" stroke-width="1.0" stroke-linejoin="round" stroke-linecap="butt" d="m935.73755 41.830914l0 0c0 -1.9287605 1.5635376 -3.4923325 3.4923096 -3.4923325l131.37756 0c0.92614746 0 1.8144531 0.3679428 2.4694824 1.0228806c0.6549072 0.65494156 1.0228271 1.5432281 1.0228271 2.469452l0 43.975964c0 1.9287643 -1.5635986 3.4923325 -3.4923096 3.4923325l-131.37756 0c-1.928772 0 -3.4923096 -1.5635681 -3.4923096 -3.4923325z" fill-rule="evenodd"/><path fill="#000000" d="m957.64343 63.523895q1.015625 0.1875 1.640625 0.75q0.640625 0.546875 0.640625 1.671875q0 1.625 -1.171875 2.296875q-1.15625 0.65625 -3.25 0.65625l-3.265625 0l0 -10.15625l2.875 0q2.140625 0 3.265625 0.609375q1.125 0.609375 1.125 1.984375q0 0.890625 -0.53125 1.453125q-0.53125 0.546875 -1.328125 0.734375zm-3.0 -3.078125l0 2.359375l0.890625 0q1.53125 0 1.53125 -1.234375q0 -0.609375 -0.421875 -0.859375q-0.40625 -0.265625 -1.296875 -0.265625l-0.703125 0zm0.875 6.703125q0.953125 0 1.4375 -0.28125q0.5 -0.28125 0.5 -1.0625q0 -1.40625 -1.765625 -1.40625l-1.046875 0l0 2.75l0.875 0zm9.089783 -6.28125q1.78125 0 2.796875 1.09375q1.015625 1.09375 1.015625 3.046875q0 1.25 -0.46875 2.1875q-0.453125 0.921875 -1.3125 1.4375q-0.859375 0.515625 -2.03125 0.515625q-1.78125 0 -2.796875 -1.09375q-1.015625 -1.09375 -1.015625 -3.0625q0 -1.234375 0.453125 -2.15625q0.46875 -0.9375 1.328125 -1.453125q0.859375 -0.515625 2.03125 -0.515625zm0 1.703125q-0.703125 0 -1.0625 0.59375q-0.34375 0.59375 -0.34375 1.828125q0 1.28125 0.34375 1.875q0.34375 0.578125 1.0625 0.578125q0.703125 0 1.046875 -0.59375q0.359375 -0.59375 0.359375 -1.84375q0 -1.265625 -0.34375 -1.84375q-0.34375 -0.59375 -1.0625 -0.59375zm11.746765 6.328125l-2.0 0l-0.109375 -0.984375q-0.84375 1.234375 -2.359375 1.234375q-1.0625 0 -1.625 -0.640625q-0.546875 -0.65625 -0.546875 -1.8125l0 -5.578125l2.328125 0l0 5.296875q0 0.5625 0.171875 0.796875q0.1875 0.21875 0.578125 0.21875q0.71875 0 1.25 -0.90625l0 -5.40625l2.3125 0l0 7.78125zm6.383423 -8.03125q1.015625 0 1.578125 0.625q0.578125 0.609375 0.578125 1.71875l0 5.6875l-2.3125 0l0 -5.296875q0 -0.578125 -0.1875 -0.796875q-0.1875 -0.234375 -0.546875 -0.234375q-0.703125 0 -1.359375 1.015625l0 5.3125l-2.3125 0l0 -7.78125l2.03125 0l0.15625 0.921875q0.5 -0.59375 1.078125 -0.875q0.578125 -0.296875 1.296875 -0.296875zm10.878601 -2.84375l0 10.875l-2.0625 0l-0.109375 -0.90625q-0.828125 1.15625 -2.21875 1.15625q-1.453125 0 -2.203125 -1.109375q-0.75 -1.125 -0.75 -3.046875q0 -1.1875 0.390625 -2.125q0.390625 -0.9375 1.109375 -1.46875q0.734375 -0.53125 1.671875 -0.53125q1.125 0 1.84375 0.734375l0 -3.828125l2.328125 0.25zm-3.671875 9.421875q0.8125 0 1.34375 -0.875l0 -3.359375q-0.265625 -0.34375 -0.5625 -0.5q-0.28125 -0.15625 -0.640625 -0.15625q-0.65625 0 -1.03125 0.609375q-0.375 0.59375 -0.375 1.828125q0 1.375 0.328125 1.921875q0.328125 0.53125 0.9375 0.53125zm7.793762 -6.328125l0 7.78125l-2.3125 0l0 -7.78125l2.3125 0zm-1.15625 -4.109375q0.59375 0 0.984375 0.375q0.390625 0.375 0.390625 0.953125q0 0.5625 -0.390625 0.9375q-0.390625 0.375 -0.984375 0.375q-0.609375 0 -1.0 -0.375q-0.375 -0.375 -0.375 -0.9375q0 -0.578125 0.375 -0.953125q0.390625 -0.375 1.0 -0.375zm7.5393066 3.859375q1.015625 0 1.578125 0.625q0.578125 0.609375 0.578125 1.71875l0 5.6875l-2.3125 0l0 -5.296875q0 -0.578125 -0.1875 -0.796875q-0.1875 -0.234375 -0.546875 -0.234375q-0.703125 0 -1.359375 1.015625l0 5.3125l-2.3125 0l0 -7.78125l2.03125 0l0.15625 0.921875q0.5 -0.59375 1.078125 -0.875q0.578125 -0.296875 1.296875 -0.296875zm11.066101 0.703125q-0.765625 0.3125 -2.25 0.3125q0.765625 0.3125 1.109375 0.78125q0.359375 0.46875 0.359375 1.21875q0 0.75 -0.40625 1.34375q-0.390625 0.59375 -1.125 0.9375q-0.734375 0.328125 -1.734375 0.328125q-0.46875 0 -0.890625 -0.078125q-0.125 0.046875 -0.1875 0.171875q-0.0625 0.125 -0.0625 0.265625q0 0.21875 0.15625 0.34375q0.171875 0.125 0.6875 0.125l1.171875 0q0.890625 0 1.5625 0.296875q0.6875 0.28125 1.046875 0.796875q0.375 0.515625 0.375 1.15625q0 1.21875 -1.046875 1.890625q-1.046875 0.6875 -3.03125 0.6875q-1.421875 0 -2.25 -0.296875q-0.8125 -0.296875 -1.140625 -0.84375q-0.328125 -0.546875 -0.328125 -1.359375l2.078125 0q0 0.34375 0.140625 0.546875q0.140625 0.21875 0.5 0.3125q0.375 0.109375 1.0625 0.109375q0.953125 0 1.3125 -0.234375q0.375 -0.21875 0.375 -0.65625q0 -0.34375 -0.28125 -0.546875q-0.28125 -0.203125 -0.84375 -0.203125l-1.125 0q-1.203125 0 -1.796875 -0.4375q-0.59375 -0.4375 -0.59375 -1.109375q0 -0.421875 0.25 -0.828125q0.25 -0.40625 0.671875 -0.65625q-0.734375 -0.40625 -1.0625 -0.9375q-0.328125 -0.53125 -0.328125 -1.296875q0 -1.3125 0.9375 -2.078125q0.9375 -0.765625 2.484375 -0.765625q1.171875 0.03125 1.984375 -0.234375q0.8125 -0.265625 1.671875 -0.78125l0.546875 1.71875zm-4.15625 0.828125q-0.53125 0 -0.859375 0.34375q-0.3125 0.34375 -0.3125 0.9375q0 0.625 0.3125 0.96875q0.328125 0.34375 0.859375 0.34375q0.578125 0 0.875 -0.328125q0.296875 -0.34375 0.296875 -1.015625q0 -1.25 -1.171875 -1.25zm13.986633 1.125q1.015625 0.1875 1.640625 0.75q0.640625 0.546875 0.640625 1.671875q0 1.625 -1.171875 2.296875q-1.15625 0.65625 -3.25 0.65625l-3.265625 0l0 -10.15625l2.875 0q2.140625 0 3.265625 0.609375q1.125 0.609375 1.125 1.984375q0 0.890625 -0.53125 1.453125q-0.53125 0.546875 -1.328125 0.734375zm-3.0 -3.078125l0 2.359375l0.890625 0q1.53125 0 1.53125 -1.234375q0 -0.609375 -0.421875 -0.859375q-0.40625 -0.265625 -1.296875 -0.265625l-0.703125 0zm0.875 6.703125q0.953125 0 1.4375 -0.28125q0.5 -0.28125 0.5 -1.0625q0 -1.40625 -1.765625 -1.40625l-1.046875 0l0 2.75l0.875 0zm9.089844 -6.28125q1.78125 0 2.796875 1.09375q1.015625 1.09375 1.015625 3.046875q0 1.25 -0.46875 2.1875q-0.453125 0.921875 -1.3125 1.4375q-0.859375 0.515625 -2.03125 0.515625q-1.78125 0 -2.796875 -1.09375q-1.015625 -1.09375 -1.015625 -3.0625q0 -1.234375 0.453125 -2.15625q0.46875 -0.9375 1.328125 -1.453125q0.859375 -0.515625 2.03125 -0.515625zm0 1.703125q-0.703125 0 -1.0625 0.59375q-0.34375 0.59375 -0.34375 1.828125q0 1.28125 0.34375 1.875q0.34375 0.578125 1.0625 0.578125q0.703125 0 1.046875 -0.59375q0.359375 -0.59375 0.359375 -1.84375q0 -1.265625 -0.34375 -1.84375q-0.34375 -0.59375 -1.0625 -0.59375zm9.227905 2.171875l2.515625 4.15625l-2.625 0l-1.359375 -2.921875l-1.3125 2.921875l-2.515625 0l2.5 -4.09375l-2.25 -3.6875l2.59375 0l1.078125 2.484375l1.046875 -2.484375l2.453125 0l-2.125 3.625zm9.8602295 0.109375q0 0.484375 -0.03125 0.84375l-4.828125 0q0.125 0.96875 0.5625 1.375q0.4375 0.390625 1.21875 0.390625q0.46875 0 0.90625 -0.15625q0.4375 -0.171875 0.953125 -0.53125l0.953125 1.296875q-1.375 1.078125 -3.046875 1.078125q-1.890625 0 -2.90625 -1.109375q-1.0 -1.125 -1.0 -3.0q0 -1.1875 0.421875 -2.125q0.421875 -0.953125 1.234375 -1.5q0.828125 -0.546875 1.984375 -0.546875q1.6875 0 2.625 1.0625q0.953125 1.046875 0.953125 2.921875zm-2.265625 -0.65625q-0.03125 -1.796875 -1.265625 -1.796875q-0.59375 0 -0.921875 0.453125q-0.328125 0.4375 -0.40625 1.4375l2.59375 0l0 -0.09375zm6.324707 -3.328125q0.828125 0 1.5625 0.25q0.734375 0.25 1.28125 0.703125l-0.84375 1.296875q-0.953125 -0.59375 -1.921875 -0.59375q-0.453125 0 -0.703125 0.15625q-0.234375 0.15625 -0.234375 0.421875q0 0.234375 0.109375 0.375q0.109375 0.125 0.4375 0.28125q0.34375 0.140625 1.046875 0.34375q1.21875 0.359375 1.8125 0.921875q0.59375 0.5625 0.59375 1.5625q0 0.78125 -0.453125 1.375q-0.453125 0.578125 -1.25 0.890625q-0.78125 0.296875 -1.75 0.296875q-0.984375 0 -1.828125 -0.296875q-0.84375 -0.3125 -1.421875 -0.859375l1.125 -1.265625q0.984375 0.765625 2.0625 0.765625q0.53125 0 0.828125 -0.1875q0.296875 -0.1875 0.296875 -0.546875q0 -0.28125 -0.125 -0.4375q-0.109375 -0.15625 -0.453125 -0.296875q-0.328125 -0.140625 -1.0625 -0.34375q-1.15625 -0.34375 -1.734375 -0.9375q-0.5625 -0.609375 -0.5625 -1.5q0 -0.671875 0.390625 -1.203125q0.390625 -0.546875 1.109375 -0.859375q0.734375 -0.3125 1.6875 -0.3125z" fill-rule="nonzero"/><path fill="#cfe2f3" d="m935.73755 105.752174l0 0c0 -1.9287643 1.5635376 -3.4923325 3.4923096 -3.4923325l131.37756 0c0.92614746 0 1.8144531 0.3679428 2.4694824 1.0228806c0.6549072 0.65493774 1.0228271 1.5432281 1.0228271 2.469452l0 43.97596c0 1.928772 -1.5635986 3.49234 -3.4923096 3.49234l-131.37756 0c-1.928772 0 -3.4923096 -1.5635681 -3.4923096 -3.49234z" fill-rule="evenodd"/><path stroke="#000000" stroke-width="1.0" stroke-linejoin="round" stroke-linecap="butt" d="m935.73755 105.752174l0 0c0 -1.9287643 1.5635376 -3.4923325 3.4923096 -3.4923325l131.37756 0c0.92614746 0 1.8144531 0.3679428 2.4694824 1.0228806c0.6549072 0.65493774 1.0228271 1.5432281 1.0228271 2.469452l0 43.97596c0 1.928772 -1.5635986 3.49234 -3.4923096 3.49234l-131.37756 0c-1.928772 0 -3.4923096 -1.5635681 -3.4923096 -3.49234z" fill-rule="evenodd"/><path fill="#000000" d="m965.45013 122.41391q0.953125 0 1.6875 0.28125q0.75 0.28125 1.40625 0.828125l-1.140625 1.375q-0.453125 -0.359375 -0.890625 -0.53125q-0.4375 -0.171875 -0.9375 -0.171875q-1.03125 0 -1.625 0.859375q-0.59375 0.859375 -0.59375 2.671875q0 1.765625 0.59375 2.625q0.59375 0.859375 1.65625 0.859375q0.546875 0 1.0 -0.203125q0.46875 -0.21875 0.984375 -0.625l1.078125 1.375q-0.578125 0.578125 -1.390625 0.953125q-0.8125 0.359375 -1.796875 0.359375q-1.40625 0 -2.453125 -0.609375q-1.03125 -0.625 -1.609375 -1.828125q-0.578125 -1.21875 -0.578125 -2.90625q0 -1.65625 0.59375 -2.859375q0.59375 -1.203125 1.640625 -1.828125q1.046875 -0.625 2.375 -0.625zm6.1557007 10.65625q-1.0 0 -1.578125 -0.578125q-0.5625 -0.578125 -0.5625 -1.65625l0 -8.890625l2.328125 -0.25l0 9.0625q0 0.484375 0.390625 0.484375q0.203125 0 0.375 -0.078125l0.453125 1.640625q-0.625 0.265625 -1.40625 0.265625zm8.404541 -2.5q0 0.4375 0.125 0.640625q0.125 0.203125 0.40625 0.3125l-0.484375 1.5q-0.71875 -0.0625 -1.171875 -0.3125q-0.453125 -0.25 -0.703125 -0.8125q-0.765625 1.171875 -2.34375 1.171875q-1.15625 0 -1.859375 -0.671875q-0.6875 -0.671875 -0.6875 -1.765625q0 -1.265625 0.9375 -1.9375q0.9375 -0.6875 2.71875 -0.6875l0.796875 0l0 -0.328125q0 -0.6875 -0.296875 -0.9375q-0.296875 -0.265625 -1.03125 -0.265625q-0.375 0 -0.921875 0.109375q-0.546875 0.109375 -1.109375 0.296875l-0.53125 -1.515625q0.734375 -0.28125 1.5 -0.421875q0.765625 -0.15625 1.4375 -0.15625q1.671875 0 2.4375 0.6875q0.78125 0.6875 0.78125 2.0625l0 3.03125zm-3.5 0.84375q0.78125 0 1.234375 -0.75l0 -1.375l-0.578125 0q-0.796875 0 -1.1875 0.28125q-0.375 0.28125 -0.375 0.859375q0 0.46875 0.234375 0.734375q0.25 0.25 0.671875 0.25zm7.94751 -6.625q0.828125 0 1.5625 0.25q0.734375 0.25 1.28125 0.703125l-0.84375 1.296875q-0.953125 -0.59375 -1.921875 -0.59375q-0.453125 0 -0.703125 0.15625q-0.234375 0.15625 -0.234375 0.421875q0 0.234375 0.109375 0.375q0.109375 0.125 0.4375 0.28125q0.34375 0.140625 1.046875 0.34375q1.21875 0.359375 1.8125 0.921875q0.59375 0.5625 0.59375 1.5625q0 0.78125 -0.453125 1.375q-0.453125 0.578125 -1.25 0.890625q-0.78125 0.296875 -1.75 0.296875q-0.984375 0 -1.828125 -0.296875q-0.84375 -0.3125 -1.421875 -0.859375l1.125 -1.265625q0.984375 0.765625 2.0625 0.765625q0.53125 0 0.828125 -0.1875q0.296875 -0.1875 0.296875 -0.546875q0 -0.28125 -0.125 -0.4375q-0.109375 -0.15625 -0.453125 -0.296875q-0.328125 -0.140625 -1.0625 -0.34375q-1.15625 -0.34375 -1.734375 -0.9375q-0.5625 -0.609375 -0.5625 -1.5q0 -0.671875 0.390625 -1.203125q0.390625 -0.546875 1.109375 -0.859375q0.734375 -0.3125 1.6875 -0.3125zm6.9763184 0q0.828125 0 1.5625 0.25q0.734375 0.25 1.28125 0.703125l-0.84375 1.296875q-0.953125 -0.59375 -1.921875 -0.59375q-0.453125 0 -0.703125 0.15625q-0.234375 0.15625 -0.234375 0.421875q0 0.234375 0.109375 0.375q0.109375 0.125 0.4375 0.28125q0.34375 0.140625 1.046875 0.34375q1.21875 0.359375 1.8125 0.921875q0.59375 0.5625 0.59375 1.5625q0 0.78125 -0.453125 1.375q-0.453125 0.578125 -1.25 0.890625q-0.78125 0.296875 -1.75 0.296875q-0.984375 0 -1.828125 -0.296875q-0.84375 -0.3125 -1.421875 -0.859375l1.125 -1.265625q0.984375 0.765625 2.0625 0.765625q0.53125 0 0.828125 -0.1875q0.296875 -0.1875 0.296875 -0.546875q0 -0.28125 -0.125 -0.4375q-0.109375 -0.15625 -0.453125 -0.296875q-0.328125 -0.140625 -1.0625 -0.34375q-1.15625 -0.34375 -1.734375 -0.9375q-0.5625 -0.609375 -0.5625 -1.5q0 -0.671875 0.390625 -1.203125q0.390625 -0.546875 1.109375 -0.859375q0.734375 -0.3125 1.6875 -0.3125zm6.6415405 0.25l0 7.78125l-2.3125 0l0 -7.78125l2.3125 0zm-1.15625 -4.109375q0.59375 0 0.984375 0.375q0.390625 0.375 0.390625 0.953125q0 0.5625 -0.390625 0.9375q-0.390625 0.375 -0.984375 0.375q-0.609375 0 -1.0 -0.375q-0.375 -0.375 -0.375 -0.9375q0 -0.578125 0.375 -0.953125q0.390625 -0.375 1.0 -0.375zm6.5393066 0.765625q1.375 0 2.578125 0.59375l-0.640625 1.46875q-0.859375 -0.34375 -1.671875 -0.34375q-0.671875 0 -0.9375 0.234375q-0.25 0.234375 -0.25 0.796875l0 0.59375l4.328125 0l0 7.78125l-2.3125 0l0 -6.171875l-2.015625 0l0 6.171875l-2.3125 0l0 -6.171875l-1.1875 0l0 -1.609375l1.1875 0l0 -0.671875q0 -1.203125 0.78125 -1.9375q0.796875 -0.734375 2.453125 -0.734375zm8.591614 3.09375q0.796875 0 1.4375 0.234375q0.65625 0.234375 1.234375 0.71875l-1.0 1.375q-0.734375 -0.5625 -1.484375 -0.5625q-0.78125 0 -1.171875 0.578125q-0.390625 0.578125 -0.390625 1.84375q0 1.234375 0.390625 1.75q0.390625 0.515625 1.140625 0.515625q0.40625 0 0.71875 -0.125q0.328125 -0.125 0.78125 -0.40625l1.015625 1.4375q-1.15625 0.921875 -2.625 0.921875q-1.1875 0 -2.0625 -0.5q-0.859375 -0.515625 -1.328125 -1.421875q-0.46875 -0.921875 -0.46875 -2.15625q0 -1.234375 0.46875 -2.1875q0.46875 -0.953125 1.328125 -1.484375q0.875 -0.53125 2.015625 -0.53125zm9.686218 5.78125q0 0.4375 0.125 0.640625q0.125 0.203125 0.40625 0.3125l-0.484375 1.5q-0.71875 -0.0625 -1.171875 -0.3125q-0.453125 -0.25 -0.703125 -0.8125q-0.765625 1.171875 -2.34375 1.171875q-1.15625 0 -1.859375 -0.671875q-0.6875 -0.671875 -0.6875 -1.765625q0 -1.265625 0.9375 -1.9375q0.9375 -0.6875 2.71875 -0.6875l0.796875 0l0 -0.328125q0 -0.6875 -0.296875 -0.9375q-0.296875 -0.265625 -1.03125 -0.265625q-0.375 0 -0.921875 0.109375q-0.546875 0.109375 -1.109375 0.296875l-0.53125 -1.515625q0.734375 -0.28125 1.5 -0.421875q0.765625 -0.15625 1.4375 -0.15625q1.671875 0 2.4375 0.6875q0.78125 0.6875 0.78125 2.0625l0 3.03125zm-3.5 0.84375q0.78125 0 1.234375 -0.75l0 -1.375l-0.578125 0q-0.796875 0 -1.1875 0.28125q-0.375 0.28125 -0.375 0.859375q0 0.46875 0.234375 0.734375q0.25 0.25 0.671875 0.25zm10.234802 1.046875q-0.4375 0.28125 -1.0 0.4375q-0.5625 0.171875 -1.125 0.171875q-2.546875 -0.015625 -2.546875 -2.8125l0 -3.609375l-1.09375 0l0 -1.609375l1.09375 0l0 -1.6875l2.3125 -0.265625l0 1.953125l1.796875 0l-0.25 1.609375l-1.546875 0l0 3.578125q0 0.546875 0.171875 0.78125q0.1875 0.234375 0.5625 0.234375q0.40625 0 0.84375 -0.25l0.78125 1.46875zm3.0792236 -7.421875l0 7.78125l-2.3125 0l0 -7.78125l2.3125 0zm-1.15625 -4.109375q0.59375 0 0.984375 0.375q0.390625 0.375 0.390625 0.953125q0 0.5625 -0.390625 0.9375q-0.390625 0.375 -0.984375 0.375q-0.609375 0 -1.0 -0.375q-0.375 -0.375 -0.375 -0.9375q0 -0.578125 0.375 -0.953125q0.390625 -0.375 1.0 -0.375zm6.3518066 3.859375q1.78125 0 2.796875 1.09375q1.015625 1.09375 1.015625 3.046875q0 1.25 -0.46875 2.1875q-0.453125 0.921875 -1.3125 1.4375q-0.859375 0.515625 -2.03125 0.515625q-1.78125 0 -2.796875 -1.09375q-1.015625 -1.09375 -1.015625 -3.0625q0 -1.234375 0.453125 -2.15625q0.46875 -0.9375 1.328125 -1.453125q0.859375 -0.515625 2.03125 -0.515625zm0 1.703125q-0.703125 0 -1.0625 0.59375q-0.34375 0.59375 -0.34375 1.828125q0 1.28125 0.34375 1.875q0.34375 0.578125 1.0625 0.578125q0.703125 0 1.046875 -0.59375q0.359375 -0.59375 0.359375 -1.84375q0 -1.265625 -0.34375 -1.84375q-0.34375 -0.59375 -1.0625 -0.59375zm9.746704 -1.703125q1.015625 0 1.578125 0.625q0.578125 0.609375 0.578125 1.71875l0 5.6875l-2.3125 0l0 -5.296875q0 -0.578125 -0.1875 -0.796875q-0.1875 -0.234375 -0.546875 -0.234375q-0.703125 0 -1.359375 1.015625l0 5.3125l-2.3125 0l0 -7.78125l2.03125 0l0.15625 0.921875q0.5 -0.59375 1.078125 -0.875q0.578125 -0.296875 1.296875 -0.296875z" fill-rule="nonzero"/><path fill="#000000" fill-opacity="0.0" d="m882.5512 126.25984l41.984253 0" fill-rule="evenodd"/><path stroke="#000000" stroke-width="1.0" stroke-linejoin="round" stroke-linecap="butt" stroke-dasharray="4.0,3.0" d="m882.5512 126.25984l35.984253 0" fill-rule="evenodd"/><path fill="#000000" stroke="#000000" stroke-width="1.0" stroke-linecap="butt" d="m918.53546 127.911575l4.538086 -1.6517334l-4.538086 -1.6517334z" fill-rule="evenodd"/></g></svg>